<svg xmlns="http://www.w3.org/2000/svg" width="1920" height="1080"><path d="M718,1412L-25,1457L1058,1461Z" fill="#d2d2d2" stroke="#d2d2d2" stroke-width="1.51"/><path d="M1627,1433L1058,1461L1938,1438Z" fill="#c6c6c6" stroke="#c6c6c6" stroke-width="1.51"/><path d="M1228,-431L1533,-328L1946,-292Z" fill="#e4e4e4" stroke="#e4e4e4" stroke-width="1.51"/><path d="M1973,679L2069,904L2271,590Z" fill="#cccccc" stroke="#cccccc" stroke-width="1.51"/><path d="M1228,-431L1946,-292L2303,-271Z" fill="#e1e1e1" stroke="#e1e1e1" stroke-width="1.51"/><path d="M1997,-82L2115,17L2303,-271Z" fill="#d9d9d9" stroke="#d9d9d9" stroke-width="1.51"/><path d="M2115,17L2238,240L2303,-271Z" fill="#d7d7d7" stroke="#d7d7d7" stroke-width="1.51"/><path d="M2055,1278L1938,1438L2308,1376Z" fill="#c1c1c1" stroke="#c1c1c1" stroke-width="1.51"/><path d="M2271,590L2069,904L2317,984Z" fill="#c8c8c8" stroke="#c8c8c8" stroke-width="1.51"/><path d="M2119,1207L2308,1376L2317,984Z" fill="#c2c2c2" stroke="#c2c2c2" stroke-width="1.51"/><path d="M2069,904L2119,1207L2317,984Z" fill="#c5c5c5" stroke="#c5c5c5" stroke-width="1.51"/><path d="M1911,347L2271,590L2321,475Z" fill="#cfcfcf" stroke="#cfcfcf" stroke-width="1.51"/><path d="M2238,240L1911,347L2321,475Z" fill="#d1d1d1" stroke="#d1d1d1" stroke-width="1.51"/><path d="M2303,-271L2238,240L2321,475Z" fill="#d3d3d3" stroke="#d3d3d3" stroke-width="1.51"/><path d="M2271,590L2317,984L2321,475Z" fill="#cacaca" stroke="#cacaca" stroke-width="1.51"/><path d="M1946,-292L1997,-82L2303,-271Z" fill="#dcdcdc" stroke="#dcdcdc" stroke-width="1.51"/><path d="M2119,1207L2055,1278L2308,1376Z" fill="#c1c1c1" stroke="#c1c1c1" stroke-width="1.51"/><path d="M477,1393L-25,1457L718,1412Z" fill="#d5d5d5" stroke="#d5d5d5" stroke-width="1.51"/><path d="M2115,17L2034,131L2238,240Z" fill="#d5d5d5" stroke="#d5d5d5" stroke-width="1.51"/><path d="M1911,347L1973,679L2271,590Z" fill="#cfcfcf" stroke="#cfcfcf" stroke-width="1.51"/><path d="M2034,131L1911,347L2238,240Z" fill="#d4d4d4" stroke="#d4d4d4" stroke-width="1.51"/><path d="M1533,-328L1699,-256L1946,-292Z" fill="#e1e1e1" stroke="#e1e1e1" stroke-width="1.51"/><path d="M1695,1015L1714,1251L2055,1278Z" fill="#c7c7c7" stroke="#c7c7c7" stroke-width="1.51"/><path d="M2069,904L1695,1015L2119,1207Z" fill="#c8c8c8" stroke="#c8c8c8" stroke-width="1.51"/><path d="M1695,1015L2055,1278L2119,1207Z" fill="#c6c6c6" stroke="#c6c6c6" stroke-width="1.51"/><path d="M1997,-82L2034,131L2115,17Z" fill="#d8d8d8" stroke="#d8d8d8" stroke-width="1.51"/><path d="M1973,679L1668,768L2069,904Z" fill="#cdcdcd" stroke="#cdcdcd" stroke-width="1.51"/><path d="M1668,768L1695,1015L2069,904Z" fill="#cccccc" stroke="#cccccc" stroke-width="1.51"/><path d="M1714,1251L1938,1438L2055,1278Z" fill="#c4c4c4" stroke="#c4c4c4" stroke-width="1.51"/><path d="M1629,88L1911,347L2034,131Z" fill="#d8d8d8" stroke="#d8d8d8" stroke-width="1.51"/><path d="M1997,-82L1782,-114L2034,131Z" fill="#dadada" stroke="#dadada" stroke-width="1.51"/><path d="M1782,-114L1629,88L2034,131Z" fill="#dbdbdb" stroke="#dbdbdb" stroke-width="1.51"/><path d="M154,-419L673,-364L1014,-431Z" fill="#f1f1f1" stroke="#f1f1f1" stroke-width="1.51"/><path d="M1911,347L1614,519L1973,679Z" fill="#d2d2d2" stroke="#d2d2d2" stroke-width="1.51"/><path d="M1946,-292L1782,-114L1997,-82Z" fill="#dddddd" stroke="#dddddd" stroke-width="1.51"/><path d="M1614,519L1668,768L1973,679Z" fill="#d1d1d1" stroke="#d1d1d1" stroke-width="1.51"/><path d="M1699,-256L1782,-114L1946,-292Z" fill="#dfdfdf" stroke="#dfdfdf" stroke-width="1.51"/><path d="M1714,1251L1627,1433L1938,1438Z" fill="#c5c5c5" stroke="#c5c5c5" stroke-width="1.51"/><path d="M1629,88L1614,519L1911,347Z" fill="#d7d7d7" stroke="#d7d7d7" stroke-width="1.51"/><path d="M1362,1362L1058,1461L1627,1433Z" fill="#c9c9c9" stroke="#c9c9c9" stroke-width="1.51"/><path d="M1486,431L1614,519L1629,88Z" fill="#d9d9d9" stroke="#d9d9d9" stroke-width="1.51"/><path d="M1699,-256L1513,-179L1782,-114Z" fill="#e1e1e1" stroke="#e1e1e1" stroke-width="1.51"/><path d="M1513,-179L1629,88L1782,-114Z" fill="#dfdfdf" stroke="#dfdfdf" stroke-width="1.51"/><path d="M1436,99L1486,431L1629,88Z" fill="#dbdbdb" stroke="#dbdbdb" stroke-width="1.51"/><path d="M1614,519L1530,702L1668,768Z" fill="#d3d3d3" stroke="#d3d3d3" stroke-width="1.51"/><path d="M1668,768L1355,936L1695,1015Z" fill="#cfcfcf" stroke="#cfcfcf" stroke-width="1.51"/><path d="M1695,1015L1412,1168L1714,1251Z" fill="#cacaca" stroke="#cacaca" stroke-width="1.51"/><path d="M1412,1168L1627,1433L1714,1251Z" fill="#c9c9c9" stroke="#c9c9c9" stroke-width="1.51"/><path d="M1530,702L1355,936L1668,768Z" fill="#d1d1d1" stroke="#d1d1d1" stroke-width="1.51"/><path d="M1533,-328L1513,-179L1699,-256Z" fill="#e3e3e3" stroke="#e3e3e3" stroke-width="1.51"/><path d="M1355,936L1412,1168L1695,1015Z" fill="#cecece" stroke="#cecece" stroke-width="1.51"/><path d="M1412,1168L1362,1362L1627,1433Z" fill="#c9c9c9" stroke="#c9c9c9" stroke-width="1.51"/><path d="M1513,-179L1436,99L1629,88Z" fill="#dfdfdf" stroke="#dfdfdf" stroke-width="1.51"/><path d="M1486,431L1530,702L1614,519Z" fill="#d6d6d6" stroke="#d6d6d6" stroke-width="1.51"/><path d="M1279,408L1213,663L1486,431Z" fill="#d9d9d9" stroke="#d9d9d9" stroke-width="1.51"/><path d="M1436,99L1279,408L1486,431Z" fill="#dbdbdb" stroke="#dbdbdb" stroke-width="1.51"/><path d="M1293,-79L1436,99L1513,-179Z" fill="#e1e1e1" stroke="#e1e1e1" stroke-width="1.51"/><path d="M1228,-431L1293,-79L1513,-179Z" fill="#e5e5e5" stroke="#e5e5e5" stroke-width="1.51"/><path d="M1220,855L1355,936L1530,702Z" fill="#d3d3d3" stroke="#d3d3d3" stroke-width="1.51"/><path d="M1213,663L1220,855L1530,702Z" fill="#d5d5d5" stroke="#d5d5d5" stroke-width="1.51"/><path d="M1486,431L1213,663L1530,702Z" fill="#d6d6d6" stroke="#d6d6d6" stroke-width="1.51"/><path d="M1228,-431L1513,-179L1533,-328Z" fill="#e5e5e5" stroke="#e5e5e5" stroke-width="1.51"/><path d="M1172,250L1279,408L1436,99Z" fill="#dedede" stroke="#dedede" stroke-width="1.51"/><path d="M1355,936L1215,1054L1412,1168Z" fill="#d0d0d0" stroke="#d0d0d0" stroke-width="1.51"/><path d="M1191,1300L1362,1362L1412,1168Z" fill="#cccccc" stroke="#cccccc" stroke-width="1.51"/><path d="M1293,-79L1172,250L1436,99Z" fill="#e0e0e0" stroke="#e0e0e0" stroke-width="1.51"/><path d="M1215,1054L1191,1300L1412,1168Z" fill="#cecece" stroke="#cecece" stroke-width="1.51"/><path d="M1191,1300L1058,1461L1362,1362Z" fill="#cccccc" stroke="#cccccc" stroke-width="1.51"/><path d="M1220,855L1215,1054L1355,936Z" fill="#d2d2d2" stroke="#d2d2d2" stroke-width="1.51"/><path d="M154,-419L376,-354L673,-364Z" fill="#f3f3f3" stroke="#f3f3f3" stroke-width="1.51"/><path d="M1014,-431L948,-109L1228,-431Z" fill="#eaeaea" stroke="#eaeaea" stroke-width="1.51"/><path d="M1073,404L1213,663L1279,408Z" fill="#dbdbdb" stroke="#dbdbdb" stroke-width="1.51"/><path d="M1228,-431L948,-109L1293,-79Z" fill="#e7e7e7" stroke="#e7e7e7" stroke-width="1.51"/><path d="M948,-109L1172,250L1293,-79Z" fill="#e4e4e4" stroke="#e4e4e4" stroke-width="1.51"/><path d="M948,-109L984,251L1172,250Z" fill="#e3e3e3" stroke="#e3e3e3" stroke-width="1.51"/><path d="M1172,250L1073,404L1279,408Z" fill="#dddddd" stroke="#dddddd" stroke-width="1.51"/><path d="M1073,404L923,733L1213,663Z" fill="#dadada" stroke="#dadada" stroke-width="1.51"/><path d="M942,1146L1191,1300L1215,1054Z" fill="#d0d0d0" stroke="#d0d0d0" stroke-width="1.51"/><path d="M1059,993L942,1146L1215,1054Z" fill="#d2d2d2" stroke="#d2d2d2" stroke-width="1.51"/><path d="M1213,663L923,733L1220,855Z" fill="#d7d7d7" stroke="#d7d7d7" stroke-width="1.51"/><path d="M1059,993L1215,1054L1220,855Z" fill="#d3d3d3" stroke="#d3d3d3" stroke-width="1.51"/><path d="M923,733L1059,993L1220,855Z" fill="#d6d6d6" stroke="#d6d6d6" stroke-width="1.51"/><path d="M942,1146L1058,1461L1191,1300Z" fill="#cecece" stroke="#cecece" stroke-width="1.51"/><path d="M984,251L1073,404L1172,250Z" fill="#dfdfdf" stroke="#dfdfdf" stroke-width="1.51"/><path d="M948,-109L713,21L984,251Z" fill="#e6e6e6" stroke="#e6e6e6" stroke-width="1.51"/><path d="M942,1146L723,1268L1058,1461Z" fill="#d0d0d0" stroke="#d0d0d0" stroke-width="1.51"/><path d="M723,1268L718,1412L1058,1461Z" fill="#d0d0d0" stroke="#d0d0d0" stroke-width="1.51"/><path d="M984,251L766,418L1073,404Z" fill="#e0e0e0" stroke="#e0e0e0" stroke-width="1.51"/><path d="M766,418L923,733L1073,404Z" fill="#dedede" stroke="#dedede" stroke-width="1.51"/><path d="M673,-364L948,-109L1014,-431Z" fill="#ececec" stroke="#ececec" stroke-width="1.51"/><path d="M633,990L942,1146L1059,993Z" fill="#d5d5d5" stroke="#d5d5d5" stroke-width="1.51"/><path d="M923,733L633,990L1059,993Z" fill="#d8d8d8" stroke="#d8d8d8" stroke-width="1.51"/><path d="M787,279L766,418L984,251Z" fill="#e2e2e2" stroke="#e2e2e2" stroke-width="1.51"/><path d="M713,21L787,279L984,251Z" fill="#e4e4e4" stroke="#e4e4e4" stroke-width="1.51"/><path d="M766,418L657,698L923,733Z" fill="#dddddd" stroke="#dddddd" stroke-width="1.51"/><path d="M657,698L633,990L923,733Z" fill="#dbdbdb" stroke="#dbdbdb" stroke-width="1.51"/><path d="M633,990L723,1268L942,1146Z" fill="#d5d5d5" stroke="#d5d5d5" stroke-width="1.51"/><path d="M673,-364L713,21L948,-109Z" fill="#eaeaea" stroke="#eaeaea" stroke-width="1.51"/><path d="M267,1359L-25,1457L477,1393Z" fill="#d7d7d7" stroke="#d7d7d7" stroke-width="1.51"/><path d="M673,-364L567,-9L713,21Z" fill="#ececec" stroke="#ececec" stroke-width="1.51"/><path d="M633,990L541,1146L723,1268Z" fill="#d7d7d7" stroke="#d7d7d7" stroke-width="1.51"/><path d="M476,624L657,698L766,418Z" fill="#e0e0e0" stroke="#e0e0e0" stroke-width="1.51"/><path d="M713,21L512,145L787,279Z" fill="#e7e7e7" stroke="#e7e7e7" stroke-width="1.51"/><path d="M516,335L766,418L787,279Z" fill="#e4e4e4" stroke="#e4e4e4" stroke-width="1.51"/><path d="M512,145L516,335L787,279Z" fill="#e6e6e6" stroke="#e6e6e6" stroke-width="1.51"/><path d="M516,335L476,624L766,418Z" fill="#e3e3e3" stroke="#e3e3e3" stroke-width="1.51"/><path d="M376,-354L324,-156L567,-9Z" fill="#efefef" stroke="#efefef" stroke-width="1.51"/><path d="M428,955L633,990L657,698Z" fill="#dcdcdc" stroke="#dcdcdc" stroke-width="1.51"/><path d="M376,-354L567,-9L673,-364Z" fill="#efefef" stroke="#efefef" stroke-width="1.51"/><path d="M567,-9L512,145L713,21Z" fill="#eaeaea" stroke="#eaeaea" stroke-width="1.51"/><path d="M477,1393L718,1412L723,1268Z" fill="#d3d3d3" stroke="#d3d3d3" stroke-width="1.51"/><path d="M541,1146L477,1393L723,1268Z" fill="#d5d5d5" stroke="#d5d5d5" stroke-width="1.51"/><path d="M476,624L428,955L657,698Z" fill="#dfdfdf" stroke="#dfdfdf" stroke-width="1.51"/><path d="M428,955L541,1146L633,990Z" fill="#dadada" stroke="#dadada" stroke-width="1.51"/><path d="M266,868L428,955L476,624Z" fill="#dfdfdf" stroke="#dfdfdf" stroke-width="1.51"/><path d="M302,457L476,624L516,335Z" fill="#e4e4e4" stroke="#e4e4e4" stroke-width="1.51"/><path d="M267,1359L477,1393L541,1146Z" fill="#d6d6d6" stroke="#d6d6d6" stroke-width="1.51"/><path d="M324,-156L512,145L567,-9Z" fill="#ececec" stroke="#ececec" stroke-width="1.51"/><path d="M428,955L150,1080L541,1146Z" fill="#dbdbdb" stroke="#dbdbdb" stroke-width="1.51"/><path d="M150,1080L267,1359L541,1146Z" fill="#dadada" stroke="#dadada" stroke-width="1.51"/><path d="M324,-156L153,196L512,145Z" fill="#ededed" stroke="#ededed" stroke-width="1.51"/><path d="M512,145L153,196L516,335Z" fill="#e9e9e9" stroke="#e9e9e9" stroke-width="1.51"/><path d="M153,196L302,457L516,335Z" fill="#e8e8e8" stroke="#e8e8e8" stroke-width="1.51"/><path d="M302,457L182,605L476,624Z" fill="#e4e4e4" stroke="#e4e4e4" stroke-width="1.51"/><path d="M182,605L266,868L476,624Z" fill="#e2e2e2" stroke="#e2e2e2" stroke-width="1.51"/><path d="M76,102L153,196L324,-156Z" fill="#efefef" stroke="#efefef" stroke-width="1.51"/><path d="M266,868L150,1080L428,955Z" fill="#dedede" stroke="#dedede" stroke-width="1.51"/><path d="M154,-419L324,-156L376,-354Z" fill="#f4f4f4" stroke="#f4f4f4" stroke-width="1.51"/><path d="M150,1080L53,1245L267,1359Z" fill="#dbdbdb" stroke="#dbdbdb" stroke-width="1.51"/><path d="M154,-419L-6,-132L324,-156Z" fill="#f4f4f4" stroke="#f4f4f4" stroke-width="1.51"/><path d="M-6,-132L76,102L324,-156Z" fill="#f1f1f1" stroke="#f1f1f1" stroke-width="1.51"/><path d="M-118,419L182,605L302,457Z" fill="#e8e8e8" stroke="#e8e8e8" stroke-width="1.51"/><path d="M153,196L-118,419L302,457Z" fill="#eaeaea" stroke="#eaeaea" stroke-width="1.51"/><path d="M182,605L-144,718L266,868Z" fill="#e4e4e4" stroke="#e4e4e4" stroke-width="1.51"/><path d="M53,1245L-25,1457L267,1359Z" fill="#d9d9d9" stroke="#d9d9d9" stroke-width="1.51"/><path d="M-144,718L150,1080L266,868Z" fill="#e1e1e1" stroke="#e1e1e1" stroke-width="1.51"/><path d="M-144,718L-152,1030L150,1080Z" fill="#e2e2e2" stroke="#e2e2e2" stroke-width="1.51"/><path d="M-126,-407L-6,-132L154,-419Z" fill="#f7f7f7" stroke="#f7f7f7" stroke-width="1.51"/><path d="M-118,419L-144,718L182,605Z" fill="#e8e8e8" stroke="#e8e8e8" stroke-width="1.51"/><path d="M-199,629L-144,718L-118,419Z" fill="#eaeaea" stroke="#eaeaea" stroke-width="1.51"/><path d="M76,102L-118,419L153,196Z" fill="#ededed" stroke="#ededed" stroke-width="1.51"/><path d="M-152,1030L53,1245L150,1080Z" fill="#dedede" stroke="#dedede" stroke-width="1.51"/><path d="M-6,-132L-236,196L76,102Z" fill="#f1f1f1" stroke="#f1f1f1" stroke-width="1.51"/><path d="M-236,196L-118,419L76,102Z" fill="#efefef" stroke="#efefef" stroke-width="1.51"/><path d="M-294,1091L-25,1457L53,1245Z" fill="#dddddd" stroke="#dddddd" stroke-width="1.51"/><path d="M-152,1030L-294,1091L53,1245Z" fill="#e0e0e0" stroke="#e0e0e0" stroke-width="1.51"/><path d="M-294,1091L-393,1392L-25,1457Z" fill="#dfdfdf" stroke="#dfdfdf" stroke-width="1.51"/><path d="M-392,-89L-236,196L-6,-132Z" fill="#f5f5f5" stroke="#f5f5f5" stroke-width="1.51"/><path d="M-126,-407L-278,-369L-6,-132Z" fill="#f9f9f9" stroke="#f9f9f9" stroke-width="1.51"/><path d="M-278,-369L-392,-89L-6,-132Z" fill="#f8f8f8" stroke="#f8f8f8" stroke-width="1.51"/><path d="M-348,1025L-152,1030L-144,718Z" fill="#e5e5e5" stroke="#e5e5e5" stroke-width="1.51"/><path d="M-403,312L-199,629L-118,419Z" fill="#ededed" stroke="#ededed" stroke-width="1.51"/><path d="M-236,196L-403,312L-118,419Z" fill="#f0f0f0" stroke="#f0f0f0" stroke-width="1.51"/><path d="M-199,629L-348,1025L-144,718Z" fill="#e7e7e7" stroke="#e7e7e7" stroke-width="1.51"/><path d="M-348,1025L-294,1091L-152,1030Z" fill="#e3e3e3" stroke="#e3e3e3" stroke-width="1.51"/><path d="M-403,312L-348,1025L-199,629Z" fill="#ebebeb" stroke="#ebebeb" stroke-width="1.51"/><path d="M-392,-89L-403,312L-236,196Z" fill="#f4f4f4" stroke="#f4f4f4" stroke-width="1.51"/><path d="M-348,1025L-393,1392L-294,1091Z" fill="#e2e2e2" stroke="#e2e2e2" stroke-width="1.51"/><path d="M-403,312L-393,1392L-348,1025Z" fill="#e7e7e7" stroke="#e7e7e7" stroke-width="1.51"/></svg>