<?xml version="1.0" encoding="utf-8"?>
<!-- Generator: Adobe Illustrator 16.0.4, SVG Export Plug-In . SVG Version: 6.00 Build 0)  -->
<!DOCTYPE svg PUBLIC "-//W3C//DTD SVG 1.1//EN" "http://www.w3.org/Graphics/SVG/1.1/DTD/svg11.dtd">
<svg version="1.1" id="Layer_1" xmlns="http://www.w3.org/2000/svg" xmlns:xlink="http://www.w3.org/1999/xlink" x="0px" y="0px"
	 width="850.394px" height="566.93px" viewBox="-127.557 135.98 850.394 566.93"
	 enable-background="new -127.557 135.98 850.394 566.93" xml:space="preserve">
<rect x="-127.557" y="135.98" fill="#FF7E43" width="850.394" height="565.465"/>
<g>
	<path fill="#FFFFFF" d="M220.192,438.808H200.83c-5.809,0-9.681,3.872-9.681,9.681v58.086c0,5.809,3.873,9.681,9.681,9.681h19.362
		c5.809,0,9.681-3.872,9.681-9.681v-58.086C229.873,442.68,226.001,438.808,220.192,438.808z"/>
	<path fill="#FFFFFF" d="M394.449,322.636h-19.361c-5.81,0-9.682,3.873-9.682,9.681v174.257c0,5.809,3.872,9.681,9.682,9.681h19.361
		c5.809,0,9.681-3.872,9.681-9.681V332.317C404.13,326.508,400.258,322.636,394.449,322.636z"/>
	<path fill="#FFFFFF" d="M336.364,361.359h-19.361c-5.809,0-9.682,3.873-9.682,9.681v135.534c0,5.809,3.873,9.681,9.682,9.681
		h19.361c5.809,0,9.681-3.872,9.681-9.681V371.041C346.044,365.232,342.172,361.359,336.364,361.359z"/>
	<path fill="#FFFFFF" d="M278.278,400.083h-19.362c-5.809,0-9.681,3.872-9.681,9.681v96.81c0,5.809,3.873,9.681,9.681,9.681h19.362
		c5.809,0,9.681-3.872,9.681-9.681v-96.81C287.959,403.956,284.087,400.083,278.278,400.083z"/>
</g>
</svg>
